# Blender v2.93.15 OBJ File: 'bullet.blend'
# www.blender.org
mtllib bullet_trail2.mtl
o Bullet_Trail_2
v -64.000000 -0.000005 -1.000000
v -0.000000 0.000000 -0.500000
v -64.000000 -0.382688 -0.923880
v 0.000000 -0.191342 -0.461940
v -64.000000 -0.707112 -0.707107
v 0.000000 -0.353553 -0.353553
v -64.000000 -0.923884 -0.382683
v 0.000000 -0.461940 -0.191342
v -64.000000 -1.000005 0.000000
v 0.000000 -0.500000 0.000000
v -64.000000 -0.923884 0.382683
v 0.000000 -0.461940 0.191342
v -64.000000 -0.707112 0.707107
v 0.000000 -0.353553 0.353553
v -64.000000 -0.382688 0.923880
v 0.000000 -0.191342 0.461940
v -64.000000 -0.000005 1.000000
v -0.000000 0.000000 0.500000
v -64.000000 0.382679 0.923880
v -0.000000 0.191342 0.461940
v -64.000000 0.707102 0.707107
v -0.000000 0.353553 0.353553
v -64.000000 0.923875 0.382684
v -0.000000 0.461940 0.191342
v -64.000000 0.999995 -0.000000
v -0.000000 0.500000 -0.000000
v -64.000000 0.923875 -0.382684
v -0.000000 0.461940 -0.191342
v -64.000000 0.707102 -0.707107
v -0.000000 0.353554 -0.353553
v -64.000000 0.382679 -0.923880
v -0.000000 0.191342 -0.461940
vt 0.872070 0.996094
vt 0.810059 0.003906
vt 0.810059 0.996094
vt 0.748047 0.003906
vt 0.748047 0.996094
vt 0.686035 0.003906
vt 0.686035 0.996094
vt 0.624023 0.003906
vt 0.624023 0.996094
vt 0.562012 0.003906
vt 0.562012 0.996094
vt 0.500000 0.003906
vt 0.500000 0.996094
vt 0.437988 0.003906
vt 0.437988 0.996094
vt 0.375977 0.003906
vt 0.375977 0.996094
vt 0.313965 0.003906
vt 0.313965 0.996094
vt 0.251953 0.003906
vt 0.251953 0.996094
vt 0.189941 0.003906
vt 0.189941 0.996094
vt 0.127930 0.003906
vt 0.127930 0.996094
vt 0.065918 0.003906
vt 0.065918 0.996094
vt 0.003906 0.003906
vt 0.003906 0.996094
vt 0.996094 0.996094
vt 0.934082 0.003906
vt 0.934082 0.996094
vt 0.872070 0.003906
vt 0.996094 0.003906
vn 0.0077 -0.8314 -0.5556
vn 0.0077 -0.9808 -0.1951
vn 0.0077 -0.9808 0.1951
vn 0.0077 -0.8314 0.5556
vn 0.0077 -0.5556 0.8314
vn 0.0077 -0.1951 0.9808
vn 0.0077 0.1951 0.9808
vn 0.0077 0.5556 0.8314
vn 0.0077 0.8314 0.5556
vn 0.0077 0.9808 0.1951
vn 0.0077 0.9808 -0.1951
vn 0.0077 0.8314 -0.5556
vn 0.0077 0.5556 -0.8314
vn 0.0077 0.1951 -0.9808
vn 0.0077 -0.1951 -0.9808
vn 0.0077 -0.5556 -0.8314
usemtl Bullet_Trail2
s off
f 5/1/1 8/2/1 7/3/1
f 7/3/2 10/4/2 9/5/2
f 9/5/3 12/6/3 11/7/3
f 11/7/4 14/8/4 13/9/4
f 13/9/5 16/10/5 15/11/5
f 15/11/6 18/12/6 17/13/6
f 17/13/7 20/14/7 19/15/7
f 19/15/8 22/16/8 21/17/8
f 21/17/9 24/18/9 23/19/9
f 23/19/10 26/20/10 25/21/10
f 25/21/11 28/22/11 27/23/11
f 27/23/12 30/24/12 29/25/12
f 29/25/13 32/26/13 31/27/13
f 31/27/14 2/28/14 1/29/14
f 1/30/15 4/31/15 3/32/15
f 3/32/16 6/33/16 5/1/16
f 5/1/1 6/33/1 8/2/1
f 7/3/2 8/2/2 10/4/2
f 9/5/3 10/4/3 12/6/3
f 11/7/4 12/6/4 14/8/4
f 13/9/5 14/8/5 16/10/5
f 15/11/6 16/10/6 18/12/6
f 17/13/7 18/12/7 20/14/7
f 19/15/8 20/14/8 22/16/8
f 21/17/9 22/16/9 24/18/9
f 23/19/10 24/18/10 26/20/10
f 25/21/11 26/20/11 28/22/11
f 27/23/12 28/22/12 30/24/12
f 29/25/13 30/24/13 32/26/13
f 31/27/14 32/26/14 2/28/14
f 1/30/15 2/34/15 4/31/15
f 3/32/16 4/31/16 6/33/16
