# Blender v2.93.15 OBJ File: ''
# www.blender.org
mtllib bullet.mtl
o Bullet
v 0.961940 -0.000000 0.191342
v 0.853553 -0.000000 0.353553
v 0.691342 -0.000000 0.461940
v 0.057742 -0.135299 -0.135299
v 0.961940 0.073223 0.176777
v 0.853553 0.135299 0.326641
v 0.691342 0.176777 0.426777
v 0.044194 -0.250000 -0.250000
v 0.000000 -0.191342 -0.461939
v 0.044194 -0.135299 0.326641
v 0.044194 0.135299 -0.326641
v 0.961940 0.135299 0.135299
v 0.853553 0.250000 0.250000
v 0.691342 0.326641 0.326641
v 0.057742 -0.135299 0.135299
v 0.000000 0.461940 -0.191342
v 0.000000 -0.191341 0.461939
v 0.057742 -0.073223 -0.176777
v 0.961940 0.176777 0.073223
v 0.853553 0.326641 0.135299
v 0.691342 0.426777 0.176777
v 0.023918 -0.461940 -0.000000
v 0.000000 0.191342 -0.461940
v 0.000000 -0.461939 -0.191341
v 0.023918 0.326641 -0.326641
v 0.961940 0.191342 -0.000000
v 0.853553 0.353553 0.000000
v 0.691342 0.461940 0.000000
v 0.044194 -0.326641 0.135299
v 0.000000 0.000000 0.500000
v 0.044194 -0.135299 -0.326641
v 0.961940 0.176777 -0.073223
v 0.853553 0.326641 -0.135299
v 0.691342 0.426777 -0.176777
v 0.023918 -0.426777 0.176777
v 0.000000 0.191342 0.461940
v 0.057742 0.073223 -0.176777
v 0.961940 0.135299 -0.135299
v 0.853553 0.250000 -0.250000
v 0.691342 0.326641 -0.326641
v 0.062500 -0.000000 -0.000000
v 0.000000 0.000000 -0.500000
v 0.000000 0.461940 0.191342
v 0.057742 0.135299 -0.135299
v 0.961940 0.073223 -0.176777
v 0.853553 0.135299 -0.326641
v 0.691342 0.176777 -0.426777
v 0.044194 -0.250000 0.250000
v 0.023918 -0.176777 0.426777
v 0.044194 0.250000 -0.250000
v 0.961940 -0.000000 -0.191342
v 0.853553 0.000000 -0.353553
v 0.691342 0.000000 -0.461940
v 0.023918 -0.326641 0.326641
v 0.000000 -0.499999 0.000000
v 0.023918 0.176777 -0.426777
v 0.961940 -0.073223 -0.176777
v 0.853553 -0.135299 -0.326641
v 0.691342 -0.176777 -0.426777
v 0.023918 -0.426777 -0.176777
v 0.000000 -0.461939 0.191342
v 0.057742 0.176777 -0.073223
v 0.961940 -0.135299 -0.135299
v 0.853553 -0.250000 -0.250000
v 0.691342 -0.326641 -0.326641
v 0.057742 -0.176777 0.073223
v 0.000000 0.353553 0.353553
v 0.023918 0.426777 -0.176777
v 1.000000 -0.000000 -0.000000
v 0.961940 -0.176777 -0.073223
v 0.853553 -0.326641 -0.135299
v 0.691342 -0.426777 -0.176777
v 0.057742 -0.191342 -0.000000
v 0.000000 -0.353553 -0.353553
v 0.044194 0.326641 -0.135299
v 0.961940 -0.191342 -0.000000
v 0.853553 -0.353553 -0.000000
v 0.691342 -0.461940 -0.000000
v 0.044194 -0.353553 -0.000000
v 0.000000 -0.353553 0.353553
v 0.023918 0.000000 -0.461940
v 0.961940 -0.176777 0.073223
v 0.853553 -0.326641 0.135299
v 0.691342 -0.426777 0.176777
v 0.044194 -0.326641 -0.135299
v 0.057742 -0.073223 0.176777
v 0.044194 0.000000 -0.353553
v 0.961940 -0.135299 0.135299
v 0.853553 -0.250000 0.250000
v 0.691342 -0.326641 0.326641
v 0.057742 -0.176777 -0.073223
v 0.000000 0.353553 -0.353553
v 0.057742 -0.000000 -0.191342
v 0.961940 -0.073223 0.176777
v 0.853553 -0.135299 0.326641
v 0.691342 -0.176777 0.426777
v 0.023918 -0.326641 -0.326641
v 0.000000 0.500000 -0.000000
v 0.023918 -0.176777 -0.426777
v 0.500000 0.191342 0.461940
v 0.500000 0.353553 -0.353553
v 0.500000 -0.353553 -0.353553
v 0.500000 -0.461939 -0.191341
v 0.500000 -0.500000 0.000000
v 0.500000 -0.461939 0.191342
v 0.500000 -0.353553 0.353553
v 0.500000 -0.191341 0.461939
v 0.500000 0.000000 0.500000
v 0.500000 0.353553 0.353553
v 0.500000 0.461940 0.191342
v 0.500000 0.500000 -0.000000
v 0.500000 0.191342 -0.461940
v 0.000000 -0.000000 -0.500000
v 0.023918 0.461940 0.000000
v -0.000000 -0.191342 0.461940
v 0.044194 0.353553 0.000000
v 0.000000 0.500000 -0.000000
v 0.057742 0.191342 -0.000000
v 0.023918 0.426777 0.176777
v 0.000000 -0.461940 0.191342
v 0.044194 0.326641 0.135299
v 0.057742 0.176777 0.073223
v 0.023918 0.326641 0.326641
v 0.044194 0.250000 0.250000
v 0.000000 0.191342 -0.461940
v 0.057742 0.135299 0.135299
v 0.000000 0.353553 0.353553
v 0.000000 -0.500000 0.000000
v 0.000000 0.191342 0.461940
v 0.023918 0.176777 0.426777
v 0.500000 -0.191342 -0.461939
v 0.500000 0.461940 -0.191342
v 0.500000 0.000000 -0.500000
v 0.000000 0.461940 -0.191342
v 0.044194 0.135299 0.326641
v 0.057742 0.073223 0.176777
v -0.000000 -0.353553 0.353553
v 0.023918 -0.000000 0.461940
v 0.000000 -0.461939 -0.191341
v 0.000000 0.000000 0.500000
v -0.000000 -0.353553 -0.353553
v 0.044194 -0.000000 0.353553
v 0.000000 0.461940 0.191342
v 0.000000 0.353553 -0.353553
v -0.000000 -0.191342 -0.461939
v 0.057742 -0.000000 0.191342
vt 0.686035 0.624023
vt 0.624023 0.624023
vt 0.624023 0.499999
vt 0.686035 0.499999
vt 0.748047 0.872070
vt 0.717163 0.996093
vt 0.686035 0.872070
vt 0.686035 0.748046
vt 0.748047 0.748046
vt 0.748047 0.624023
vt 0.624023 0.872070
vt 0.624023 0.748046
vt 0.655151 0.996093
vt 0.593140 0.996093
vt 0.562012 0.872070
vt 0.562012 0.748046
vt 0.562012 0.624023
vt 0.500000 0.624023
vt 0.500000 0.499999
vt 0.562012 0.499999
vt 0.531128 0.996093
vt 0.500000 0.872070
vt 0.500000 0.748046
vt 0.437988 0.748046
vt 0.437988 0.624023
vt 0.437988 0.499999
vt 0.469116 0.996093
vt 0.437988 0.872070
vt 0.375977 0.748046
vt 0.375977 0.624023
vt 0.375976 0.499999
vt 0.407104 0.996093
vt 0.375976 0.872070
vt 0.313965 0.748046
vt 0.313965 0.624023
vt 0.313965 0.499999
vt 0.345093 0.996093
vt 0.313965 0.872070
vt 0.251953 0.748046
vt 0.251953 0.624023
vt 0.251953 0.499999
vt 0.283081 0.996093
vt 0.251953 0.872070
vt 0.189941 0.748046
vt 0.189941 0.624023
vt 0.313965 0.003906
vt 0.251953 0.003906
vt 0.221069 0.996093
vt 0.189941 0.872070
vt 0.127930 0.748046
vt 0.127930 0.624023
vt 0.189941 0.500000
vt 0.189941 0.003906
vt 0.159058 0.996093
vt 0.127930 0.872070
vt 0.065918 0.748046
vt 0.065918 0.624023
vt 0.127930 0.500000
vt 0.127930 0.003906
vt 0.097046 0.996093
vt 0.065918 0.872070
vt 0.003906 0.748046
vt 0.003906 0.624023
vt 0.065918 0.500000
vt 0.065918 0.003906
vt 0.035034 0.996092
vt 0.003906 0.872070
vt 0.996094 0.748046
vt 0.934082 0.748046
vt 0.934082 0.624023
vt 0.996094 0.624023
vt 0.003906 0.500000
vt 0.003906 0.003906
vt 0.996094 0.872070
vt 0.965210 0.996093
vt 0.934082 0.872070
vt 0.872070 0.748046
vt 0.872070 0.624023
vt 0.903198 0.996093
vt 0.872070 0.872070
vt 0.810058 0.748046
vt 0.810058 0.624023
vt 0.934082 0.499999
vt 0.996094 0.499999
vt 0.841186 0.996093
vt 0.810058 0.872070
vt 0.872070 0.499999
vt 0.779175 0.996093
vt 0.810058 0.499999
vt 0.934082 0.003906
vt 0.872070 0.003906
vt 0.810059 0.003906
vt 0.748047 0.500000
vt 0.748047 0.003906
vt 0.686035 0.003906
vt 0.624023 0.003906
vt 0.562012 0.003906
vt 0.500000 0.003906
vt 0.437988 0.003906
vt 0.375977 0.003906
vt 0.996094 0.003906
vt 0.686035 0.251952
vt 0.686035 0.003905
vt 0.624023 0.003905
vt 0.624023 0.251952
vt 0.748047 0.748046
vt 0.686035 0.748046
vt 0.717163 0.996092
vt 0.748047 0.499999
vt 0.686035 0.499999
vt 0.748047 0.251952
vt 0.624023 0.499999
vt 0.624023 0.748046
vt 0.655151 0.996092
vt 0.562012 0.748046
vt 0.593140 0.996092
vt 0.562012 0.251952
vt 0.562012 0.499999
vt 0.562012 0.003905
vt 0.500000 0.003905
vt 0.500000 0.251952
vt 0.500000 0.748046
vt 0.531128 0.996092
vt 0.500000 0.499999
vt 0.437988 0.251952
vt 0.437988 0.499999
vt 0.437988 0.003905
vt 0.437988 0.748046
vt 0.469116 0.996092
vt 0.375977 0.251952
vt 0.375977 0.499999
vt 0.375976 0.003905
vt 0.375976 0.748046
vt 0.407104 0.996092
vt 0.313965 0.251952
vt 0.313965 0.499999
vt 0.313965 0.003905
vt 0.313965 0.748046
vt 0.345093 0.996092
vt 0.251953 0.251952
vt 0.251953 0.499999
vt 0.251953 0.003905
vt 0.251953 0.748046
vt 0.283081 0.996092
vt 0.189941 0.251952
vt 0.189941 0.499999
vt 0.189941 0.748046
vt 0.221069 0.996092
vt 0.127930 0.251952
vt 0.127930 0.499999
vt 0.127930 0.748046
vt 0.159058 0.996092
vt 0.065918 0.251952
vt 0.065918 0.499999
vt 0.065918 0.748046
vt 0.097046 0.996092
vt 0.003906 0.251952
vt 0.003906 0.499999
vt 0.035034 0.996091
vt 0.003906 0.748046
vt 0.996094 0.499999
vt 0.996094 0.251952
vt 0.934082 0.251952
vt 0.934082 0.499999
vt 0.996094 0.748046
vt 0.934082 0.748046
vt 0.965210 0.996092
vt 0.872070 0.251952
vt 0.872070 0.499999
vt 0.872070 0.748046
vt 0.903198 0.996092
vt 0.810058 0.251952
vt 0.810058 0.499999
vt 0.996094 0.003905
vt 0.934082 0.003905
vt 0.810058 0.748046
vt 0.841186 0.996092
vt 0.872070 0.003905
vt 0.779175 0.996092
vt 0.810058 0.003905
vt 0.748047 0.003905
vt 0.189941 0.003905
vt 0.127930 0.003905
vt 0.065918 0.003905
vt 0.003906 0.003905
vn 0.3743 0.3548 0.8567
vn 0.3743 0.6557 0.6557
vn 0.0968 0.7038 0.7038
vn 0.0968 0.3809 0.9195
vn 0.9152 0.0000 0.4031
vn 1.0000 0.0000 0.0000
vn 0.9152 0.1542 0.3724
vn 0.6952 0.2751 0.6641
vn 0.6952 0.0000 0.7188
vn 0.3743 0.0000 0.9273
vn 0.9152 0.2850 0.2850
vn 0.6952 0.5083 0.5083
vn 0.9152 0.3724 0.1542
vn 0.6952 0.6641 0.2751
vn 0.3743 0.8567 0.3548
vn 0.3743 0.9273 0.0000
vn 0.0968 0.9953 0.0000
vn 0.0968 0.9195 0.3809
vn 0.9152 0.4031 0.0000
vn 0.6952 0.7188 0.0000
vn 0.6952 0.6641 -0.2751
vn 0.3743 0.8567 -0.3548
vn 0.0968 0.9195 -0.3809
vn 0.9152 0.3724 -0.1542
vn 0.6952 0.5083 -0.5083
vn 0.3743 0.6557 -0.6557
vn 0.0968 0.7038 -0.7038
vn 0.9152 0.2850 -0.2850
vn 0.6952 0.2751 -0.6641
vn 0.3743 0.3548 -0.8567
vn 0.0968 0.3809 -0.9195
vn 0.9152 0.1542 -0.3724
vn 0.6952 0.0000 -0.7188
vn 0.3743 0.0000 -0.9273
vn 0.0968 0.0000 -0.9953
vn 0.9152 0.0000 -0.4031
vn 0.6952 -0.2751 -0.6641
vn 0.3743 -0.3548 -0.8567
vn 0.0000 0.3827 -0.9239
vn 0.0000 0.0000 -1.0000
vn 0.9152 -0.1542 -0.3724
vn 0.6952 -0.5083 -0.5083
vn 0.3743 -0.6557 -0.6557
vn 0.0968 -0.3809 -0.9195
vn 0.0000 -0.3827 -0.9239
vn 0.9152 -0.2850 -0.2850
vn 0.6952 -0.6641 -0.2751
vn 0.3743 -0.8567 -0.3548
vn 0.0968 -0.7038 -0.7038
vn 0.0000 -0.7071 -0.7071
vn 0.9152 -0.3724 -0.1542
vn 0.6952 -0.7188 0.0000
vn 0.3743 -0.9273 0.0000
vn 0.0968 -0.9195 -0.3809
vn 0.0000 -0.9239 -0.3827
vn 0.9152 -0.4031 0.0000
vn 0.6952 -0.6641 0.2751
vn 0.3743 -0.8567 0.3548
vn 0.0968 -0.9953 0.0000
vn 0.0000 -1.0000 0.0000
vn 0.9152 -0.3724 0.1542
vn 0.6952 -0.5083 0.5083
vn 0.3743 -0.6557 0.6557
vn 0.9152 -0.2850 0.2850
vn 0.6952 -0.2751 0.6641
vn 0.3743 -0.3548 0.8567
vn 0.0968 -0.9195 0.3809
vn 0.9152 -0.1542 0.3724
vn 0.0968 -0.7038 0.7038
vn 0.0968 -0.3809 0.9195
vn 0.0000 -0.9239 0.3827
vn 0.0000 -0.7071 0.7071
vn 0.0000 -0.3827 0.9239
vn 0.0968 0.0000 0.9953
vn 0.0000 0.0000 1.0000
vn 0.0000 0.3827 0.9239
vn 0.0000 0.7071 0.7071
vn 0.0000 0.9239 0.3827
vn 0.0000 1.0000 0.0000
vn 0.0000 0.9239 -0.3827
vn 0.0000 0.7071 -0.7071
vn -0.9232 -0.1471 -0.3551
vn -0.8467 -0.2036 -0.4916
vn -0.8467 -0.3762 -0.3762
vn -0.9232 -0.2717 -0.2717
vn -0.9983 0.0000 -0.0577
vn -0.9983 -0.0221 -0.0533
vn -1.0000 0.0000 0.0000
vn -0.9901 0.0000 -0.1399
vn -0.9901 -0.0535 -0.1293
vn -0.9232 0.0000 -0.3843
vn -0.9901 -0.0989 -0.0989
vn -0.9983 -0.0408 -0.0408
vn -0.9983 -0.0533 -0.0221
vn -0.9232 -0.3551 -0.1471
vn -0.9901 -0.1293 -0.0535
vn -0.8467 -0.4916 -0.2036
vn -0.8467 -0.5321 0.0000
vn -0.9232 -0.3843 0.0000
vn -0.9983 -0.0577 0.0000
vn -0.9901 -0.1399 0.0000
vn -0.9232 -0.3551 0.1471
vn -0.9901 -0.1293 0.0535
vn -0.8467 -0.4916 0.2036
vn -0.9983 -0.0533 0.0221
vn -0.9232 -0.2717 0.2717
vn -0.9901 -0.0989 0.0989
vn -0.8467 -0.3762 0.3762
vn -0.9983 -0.0408 0.0408
vn -0.9232 -0.1471 0.3551
vn -0.9901 -0.0535 0.1293
vn -0.8467 -0.2036 0.4916
vn -0.9983 -0.0221 0.0533
vn -0.9232 0.0000 0.3843
vn -0.9901 0.0000 0.1399
vn -0.8467 0.0000 0.5321
vn -0.9983 0.0000 0.0577
vn -0.9232 0.1471 0.3551
vn -0.9901 0.0535 0.1293
vn -0.9983 0.0221 0.0533
vn -0.9232 0.2717 0.2717
vn -0.9901 0.0989 0.0989
vn -0.9983 0.0408 0.0408
vn -0.9232 0.3551 0.1471
vn -0.9901 0.1293 0.0535
vn -0.9983 0.0533 0.0221
vn -0.9232 0.3843 0.0000
vn -0.9901 0.1399 0.0000
vn -0.9983 0.0577 0.0000
vn -0.9232 0.3551 -0.1471
vn -0.9901 0.1293 -0.0535
vn -0.9983 0.0533 -0.0221
vn -0.9232 0.2717 -0.2717
vn -0.9901 0.0989 -0.0989
vn -0.9983 0.0408 -0.0408
vn -0.9232 0.1471 -0.3551
vn -0.9901 0.0535 -0.1293
vn -0.8467 0.5321 0.0000
vn -0.8467 0.4916 -0.2036
vn -0.9983 0.0221 -0.0533
vn -0.8467 0.3762 -0.3762
vn -0.8467 0.2036 -0.4916
vn -0.8467 0.0000 -0.5321
vn -0.8467 0.2036 0.4916
vn -0.8467 0.3762 0.3762
vn -0.8467 0.4916 0.2036
usemtl Bullet
s 1
f 7/1/1 14/2/2 109/3/3 100/4/4
f 1/5/5 69/6/6 5/7/7
f 1/5/5 5/7/7 6/8/8 2/9/9
f 2/9/9 6/8/8 7/1/1 3/10/10
f 5/7/7 12/11/11 13/12/12 6/8/8
f 5/7/7 69/13/6 12/11/11
f 7/1/1 6/8/8 13/12/12 14/2/2
f 12/11/11 69/14/6 19/15/13
f 14/2/2 13/12/12 20/16/14 21/17/15
f 21/17/15 28/18/16 111/19/17 110/20/18
f 12/11/11 19/15/13 20/16/14 13/12/12
f 19/15/13 69/21/6 26/22/19
f 27/23/20 33/24/21 34/25/22 28/18/16
f 111/19/17 28/18/16 34/25/22 132/26/23
f 26/22/19 69/27/6 32/28/24
f 32/28/24 33/24/21 27/23/20 26/22/19
f 33/24/21 39/29/25 40/30/26 34/25/22
f 19/15/13 26/22/19 27/23/20 20/16/14
f 132/26/23 34/25/22 40/30/26 101/31/27
f 32/28/24 69/32/6 38/33/28
f 39/29/25 46/34/29 47/35/30 40/30/26
f 40/30/26 47/35/30 112/36/31 101/31/27
f 38/33/28 69/37/6 45/38/32
f 32/28/24 38/33/28 39/29/25 33/24/21
f 46/34/29 52/39/33 53/40/34 47/35/30
f 47/35/30 53/40/34 133/41/35 112/36/31
f 45/38/32 69/42/6 51/43/36
f 38/33/28 45/38/32 46/34/29 39/29/25
f 52/39/33 58/44/37 59/45/38 53/40/34
f 125/46/39 112/36/31 133/41/35 113/47/40
f 51/43/36 69/48/6 57/49/41
f 45/38/32 51/43/36 52/39/33 46/34/29
f 58/44/37 64/50/42 65/51/43 59/45/38
f 113/47/40 133/41/35 131/52/44 145/53/45
f 57/49/41 69/54/6 63/55/46
f 51/43/36 57/49/41 58/44/37 52/39/33
f 64/50/42 71/56/47 72/57/48 65/51/43
f 145/53/45 131/52/44 102/58/49 141/59/50
f 63/55/46 69/60/6 70/61/51
f 57/49/41 63/55/46 64/50/42 58/44/37
f 71/56/47 77/62/52 78/63/53 72/57/48
f 141/59/50 102/58/49 103/64/54 139/65/55
f 69/66/6 76/67/56 70/61/51
f 64/50/42 63/55/46 70/61/51 71/56/47
f 77/68/52 83/69/57 84/70/58 78/71/53
f 139/65/55 103/64/54 104/72/59 128/73/60
f 76/74/56 69/75/6 82/76/61
f 84/70/58 83/69/57 89/77/62 90/78/63
f 71/56/47 70/61/51 76/67/56 77/62/52
f 82/76/61 69/79/6 88/80/64
f 90/78/63 89/77/62 95/81/65 96/82/66
f 76/74/56 82/76/61 83/69/57 77/68/52
f 78/71/53 84/70/58 105/83/67 104/84/59
f 88/80/64 69/85/6 94/86/68
f 95/81/65 2/9/9 3/10/10 96/82/66
f 84/70/58 90/78/63 106/87/69 105/83/67
f 82/76/61 88/80/64 89/77/62 83/69/57
f 94/86/68 69/88/6 1/5/5
f 88/80/64 94/86/68 95/81/65 89/77/62
f 94/86/68 1/5/5 2/9/9 95/81/65
f 90/78/63 96/82/66 107/89/70 106/87/69
f 120/90/71 105/83/67 106/87/69 137/91/72
f 137/91/72 106/87/69 107/89/70 115/92/73
f 115/92/73 107/89/70 108/93/74 140/94/75
f 96/82/66 3/10/10 108/93/74 107/89/70
f 129/95/76 100/4/4 109/3/3 127/96/77
f 143/97/78 110/20/18 111/19/17 117/98/79
f 53/40/34 59/45/38 131/52/44 133/41/35
f 134/99/80 132/26/23 101/31/27 144/100/81
f 144/100/81 101/31/27 112/36/31 125/46/39
f 59/45/38 65/51/43 102/58/49 131/52/44
f 65/51/43 72/57/48 103/64/54 102/58/49
f 72/57/48 78/63/53 104/72/59 103/64/54
f 128/101/60 104/84/59 105/83/67 120/90/71
f 140/94/75 108/93/74 100/4/4 129/95/76
f 127/96/77 109/3/3 110/20/18 143/97/78
f 117/98/79 111/19/17 132/26/23 134/99/80
f 3/10/10 7/1/1 100/4/4 108/93/74
f 14/2/2 21/17/15 110/20/18 109/3/3
f 20/16/14 27/23/20 28/18/16 21/17/15
f 130/102/82 36/103/83 67/104/84 123/105/85
f 146/106/86 136/107/87 41/108/88
f 146/106/86 142/109/89 135/110/90 136/107/87
f 142/109/89 138/111/91 130/102/82 135/110/90
f 136/107/87 135/110/90 124/112/92 126/113/93
f 136/107/87 126/113/93 41/114/88
f 130/102/82 123/105/85 124/112/92 135/110/90
f 126/113/93 122/115/94 41/116/88
f 123/105/85 119/117/95 121/118/96 124/112/92
f 119/117/95 43/119/97 98/120/98 114/121/99
f 126/113/93 124/112/92 121/118/96 122/115/94
f 122/115/94 118/122/100 41/123/88
f 116/124/101 114/121/99 68/125/102 75/126/103
f 98/120/98 16/127/104 68/125/102 114/121/99
f 118/122/100 62/128/105 41/129/88
f 62/128/105 118/122/100 116/124/101 75/126/103
f 75/126/103 68/125/102 25/130/106 50/131/107
f 122/115/94 121/118/96 116/124/101 118/122/100
f 16/127/104 92/132/108 25/130/106 68/125/102
f 62/128/105 44/133/109 41/134/88
f 50/131/107 25/130/106 56/135/110 11/136/111
f 25/130/106 92/132/108 23/137/112 56/135/110
f 44/133/109 37/138/113 41/139/88
f 62/128/105 75/126/103 50/131/107 44/133/109
f 11/136/111 56/135/110 81/140/114 87/141/115
f 56/135/110 23/137/112 42/142/116 81/140/114
f 37/138/113 93/143/117 41/144/88
f 44/133/109 50/131/107 11/136/111 37/138/113
f 87/141/115 81/140/114 99/145/118 31/146/119
f 93/143/117 18/147/120 41/148/88
f 37/138/113 11/136/111 87/141/115 93/143/117
f 31/146/119 99/145/118 97/149/121 8/150/122
f 18/147/120 4/151/123 41/152/88
f 93/143/117 87/141/115 31/146/119 18/147/120
f 8/150/122 97/149/121 60/153/124 85/154/125
f 4/151/123 91/155/126 41/156/88
f 18/147/120 31/146/119 8/150/122 4/151/123
f 85/154/125 60/153/124 22/157/127 79/158/128
f 41/159/88 91/155/126 73/160/129
f 8/150/122 85/154/125 91/155/126 4/151/123
f 79/161/128 22/162/127 35/163/130 29/164/131
f 73/165/129 66/166/132 41/167/88
f 35/163/130 54/168/133 48/169/134 29/164/131
f 85/154/125 79/158/128 73/160/129 91/155/126
f 66/166/132 15/170/135 41/171/88
f 54/168/133 49/172/136 10/173/137 48/169/134
f 73/165/129 79/161/128 29/164/131 66/166/132
f 22/162/127 55/174/138 61/175/139 35/163/130
f 15/170/135 86/176/140 41/177/88
f 10/173/137 49/172/136 138/111/91 142/109/89
f 35/163/130 61/175/139 80/178/141 54/168/133
f 66/166/132 29/164/131 48/169/134 15/170/135
f 86/176/140 146/106/86 41/179/88
f 15/170/135 48/169/134 10/173/137 86/176/140
f 86/176/140 10/173/137 142/109/89 146/106/86
f 54/168/133 80/178/141 17/180/142 49/172/136
f 49/172/136 17/180/142 30/181/143 138/111/91
f 81/140/114 42/142/116 9/182/144 99/145/118
f 99/145/118 9/182/144 74/183/145 97/149/121
f 97/149/121 74/183/145 24/184/146 60/153/124
f 60/153/124 24/184/146 55/185/138 22/157/127
f 138/111/91 30/181/143 36/103/83 130/102/82
f 123/105/85 67/104/84 43/119/97 119/117/95
f 121/118/96 119/117/95 114/121/99 116/124/101
